<svg xmlns="http://www.w3.org/2000/svg" height="800" width="1200" version="1.0" 
viewBox="-85.03935 -30.06675 737.0077 180.4005">
<path fill="#ffffff" d="M323.166 95.607l-1.61-.04-4.744-3.172c-1.81-1.61-3.338-2.052-5.065-3.056l.04-1.93 1.807-1.846-.04-36.129c-.12-.724-.601-1.445-1.887-2.331v-1.525c5.36-2.485 7.47-3.605 14.03-8.68-5.105-6.39-10.532-12.418-16.162-16.92l-.243-1.889c1.206-2.169 1.449-4.58 1.81-9.683l1.047.08 31.32 32.631c.562.844.642 1.126 0 2.17l-1.65 1.325.12 36.932.763.763.04 2.05c-6.912 2.933-13.063 7.354-19.417 11.13zm-141.2-33.072c-3.78 7.074-14.155 23.267-12.99 22.905 4.866-1.485 9.732-3.093 13.95 2.371l1.81-1.043.163-21.54c-1.046-1.488-1.973-2.212-2.936-2.693zm250.477 23.267v1.93c-2.172 1.205-3.86 4.54-5.912 7.111l-1.727-1.847V91.95c-.402-2.209-1.89-4.019-3.62-5.022v-1.206l1.046-.923-.12-38.218-1.69-1.365 4.946-5.989.04-1.285 1.81-.764c1.086 1.93 2.41 3.537 4.019 4.783 1.65.963 4.384.601 5.59-.04a22.934 22.934 0 004.34-4.823h1.087l5.427 5.826v2.292c-1.648 1.887-4.06 3.816-5.265 5.626-2.052 3.133-3.148 5.026-4.261 9.201-.752 2.98.343 10.312 4.163 10.701 2.847.052 3.234-.935 3.234-.935-4.704-1.406-3.66-6.952-1.246-8.038 3.27-1.218 6.047 1.828 6.191 3.9.3 1.84-.304 3.647-1.433 4.862-1.54 1.43-2.656 3.016-7.01 2.65-2.822-.233-5.909-3.181-6.415-8.075-.755-7.19 2.194-12.74 3.721-15.192-1.448-3.053-3.457-4.5-6.353-4.258-.804.362-1.286.883-1.448 1.687l.082 37.374zM289.032 87.41l-.083 1.205c-3.096 3.096-4.504 5.345-5.065 7.195h-1.409c-3.015-8.038-5.467-7.557-5.467-7.796l.04-.966 1.81-1.084V50.6c-2.813-5.746-7.841-6.068-10.535-1.285l-.04 35.643 2.332 2.17-.08 1.165c-2.451 2.252-4.222 5.025-5.67 7.958h-1.043c-1.61-3.457-3.7-5.988-6.513-7.154l.04-2.289c1.245-.724 2.292-1.77 2.853-3.697v-34.76c-.08-1.166-1.166-2.773-2.531-2.896 3.215-2.53 3.786-3.58 4.903-6.065l1.368-2.412h1.126c6.031 9.483 11.379 8.56 17.288-.202l.966-.08c1.648 3.013 3.697 5.305 5.87 6.912 0 1.366-2.093 1.887-2.253 5.587v36.647zm187.035-.24l.08 1.286c-2.455 2.01-3.9 4.298-5.873 6.63l-1.445-.08-.846-1.97c-1.246-2.411-2.332-3.737-3.658-5.065v-1.123l1.608-2.491V40.273s-.043-.81-1.166-.883l-5.065-.043-.322-2.09c-.117-1.132.564-.963.564-.963h5.87l-.04-14.266-2.212-2.13V17.93c5.829-2.61 11.86-6.108 18.012-10.649l1.205.16c1.126 2.614 5.308 5.949 10.293 1.93 1.81 3.86-2.693 8.802-6.071 9.403-5.59.242-8.686-.724-10.695-3.255-1.046-.562-1.89.482-2.491 2.292v17.72c.08 1.006.843.966 1.285.966l6.191.12.967 2.933-8.041.282-.442 44.486zm-246.14-1.97l.04 1.326c-2.411 2.451-4.101 6.47-5.948 9.081 0 0-.988-2.059-1.47-3.05-1.764-2.779-3.074-4.384-4.402-5.951l1.61-2.65V48.67l-1.046-1.485v-2.251c7.237-2.774 12.665-5.826 16.604-9.404l1.65-.12c2.412 8.8 5.225 11.935 7.115 14.466v1.528c-6.072 3.013-9.45 4.301-10.253 9.244-1.086 4.66 1.73 7.354 3.58 7.031-.485-1.607-1.337-2.319-1.408-3.736-.402-8.115 8.925-5.256 8.28-.206-1.024 5.759-5.105 7.118-5.829 6.636 0 0-2.196.414-3.635-.328-2.21-1.325-3.48-2.728-3.801-4.976-1.252-5.691 1.448-9.606 3.135-11.456-1.006-3.976-2.451-7.152-4.222-10.124-.803.362-1.165.319-1.325 1.083l.2 38.015c.724.764.926 1.647 1.125 2.614m-117.6-62.047l4.384-5.706 5.224 4.862-4.583 5.787zm16.162-.04l4.384-5.706 5.227 4.863-4.546 5.746zm49.253 39.457c-1.807-.481-3.176-1.12-3.538-2.325l.04-16.8c4.663 2.494 9.406 2.092 14.352.282-4.663 9.204-10.854 18.843-10.854 18.843M15.109 18.491c-.601 1.488-1.365 2.252-2.249 2.574 0 0-1.69.371-2.653 0-1.047-.362-1.743-1.12-2.252-2.574-.503-1.795 0-3.657 0-3.657.561-1.565 1.911-2.642 3.32-3.083 1.294-.286 2.865.052 2.865.052 2.132.843 3.062 2.39 3.706 4.96.359 1.341.14 3.786-.04 4.302-1.289 3.737-5.222 6.946-9.47 6.32-3.716-.485-5.86-2.63-7.155-5.427 0 0-1.632-3.102-1.059-7.483.209-2.148 1.157-3.74 1.157-3.74 1.696-3.221 2.09-3.74 4.424-5.786 3.031-2.126 5.145-2.893 7.719-3.494 2.902-.675 6.516-1.228 10.501-.4 1.96.277 12.901 5.324 16.598 6.026 1.448.442 3.728.669 4.946.32 0 0 9.246-3.216 12.02-5.505l1.73-.04.08 1.445c-5.228 5.023-13.63 10.447-16.484 11.214-7.501 1.73-12.809 1.371-19.982-2.491-2.574-1.488-5.148-2.491-7.722-3.216-2.08-.337-3.212-.567-5.587.04C3.21 11.18 1.002 21.694 8.114 24.28c3 1.12 7.64-2.936 6.995-5.789m21.994 59.782c6.25-.331 11.606 1.105 15.908 3.074l-.148-66.955-5.025 3.136-.12 48.703c-.966 5.507-4.022 9.606-10.615 11.656zm25.105-27.915V44.77l-3.052-.583s-2.418-.54-2.94-.018l.04 6.268c1.056.945 5.953-.08 5.953-.08m-.323-9.002l.402-19.168-.362-4.099c-.392-3.853-2.095-6.167-4.276-7.734l-1.387 1.123.316 30.118zm3.924-19.14c.01.088.016 15.125.016 15.125l.202-.117c5.75-2.773 4.29-8.771 4.12-9.774-.457-2.802-4.338-5.234-4.338-5.234M60.533 53.19s-4.3-.964-4.34.843l.131 29.367a38.83 38.83 0 015.817 4.249v-32.37c.282-1.807-1.206-1.97-1.608-2.09m5.293-13.946v47.105l.202-.138c8.28-5.507 13.306-19.371 6.633-25.197v-1.286c5.507-8.4 2.574-16.116-6.676-20.214a.582.582 0 00-.16-.27m-23.577 71.995c2.694 1.571 5.47 1.691 8.686-.319l1.245 1.528c-5.948 7.633-15.195 9.726-25.73 6.069-11.297-5.425-14.073-13.383-10.855-24.477 3.602-8.878 10.311-13.818 19.294-15.566-1.926-1.672-.598-3.28 1.289-5.37l.644-20.935c0-2.571-1.93-2.893-3.295-4.381l-.04-1.126c1.083-1.003 2.412-1.445 3.215-3.697l.04-16.435-3.338 1.325c-1.165 0-1.93-.159-1.727-2.049 4.378-3.132 17.288-12.968 25.949-18.172L67.66.488c2.05-.764 2.491-.68 2.332.605-.108.899-1.89 2.856-2.323 2.887 1.93 1.613 3.529 5.38 6.182 7.36l2.292.04c1.006.481 1.206 1.003 1.166 1.527-.485 1.206-.804 2.611-.724 4.179 0 0 .926 3.896.963 5.746.163 6.069-1.97 10.769-6.673 14.226 3.176 1.485 6.192 3.216 9.49 6.228 2.49 2.09 5.467 8.278 7.56 13.745.238.521-.203.923 0 1.485l2.812 2.534-.04 1.043-2.494 3.657c-1.567 4.703-3.175 8.6-5.829 11.213-2.773 2.73-5.63 5.624-9.93 7.876l-5.428 3.295-11.94 7.154-1.007.04c-3.215-3.378-7.918-6.51-12.545-8.078-3.335-1.126-6.712-1.086-8.762-1.046-12.063.322-17.168 14.107-12.747 21.942 4.102 7.354 14.797 10.729 21.107 2.973zm144.259-56.821l7.838 4.743v1.325s-1.408 3.844-1.488 6.228c-.08 2.172-.199 12.619.243 13.665.282 1.488.923 2.209 1.81 3.135-.04 1.083-12.143 7.676-15.843 11.21l-1.568.04c-6.713-11.01-12.784-3.215-14.714-.119-.442.764-1.607.16-1.81-.04l-.08-1.647 12.364-24.013c-1.561-1.38-5.9-2.896-9.63-4.762v-1.245l2.411-2.774.083-10.446c.065-1.39-.524-2.893-.524-2.893-.212-.519-1.326-1.727-1.326-1.727 5.228-2.01 10.612-4.544 16.162-9.124h1.326c2.696 3.374 6.353 4.42 11.458 2.009l1.448 1.488c.482 1.445-7.878 13.02-8.16 14.947m-61.258 33.024l.224-.15c1.65-1.127 3.055-2.13 4.706-2.452V45.778c-1.684-.93-3.369-1.924-4.94-3.068-1.613.377-3.101.899-4.147 2.025l-.04 39.46a12.121 12.121 0 014.197 3.246m15.263-3.848c-6.523 2.593-13.045 5.989-19.53 10.269l-.292.42h-1.608l-4.743-3.175c-1.81-1.608-3.338-2.05-5.068-3.093v-1.89l1.85-2.05c.276-.386.396-.88.362-1.487l.04-35c-.16-.886-.644-1.607-1.85-2.049l.04-1.647c4.141-1.126 16.272-5.507 19.711-7.811l.393-.51 1.206.04.2.123c2.512 3.05 6.046 2.988 8.887 5.906.844.883.641 1.89 0 2.933l-1.289 3.335-.04 32.873zm241.69 4.409c1.872-1.273 3.28-2.28 4.928-2.602V46.342c-1.679-.93-3.418-1.847-4.986-3.016-1.525.323-3.013.844-4.099 1.97l-.04 39.463c1.599.74 3.08 1.856 4.197 3.243m15.303-3.847c-6.562 2.592-13.084 5.991-19.57 10.268l-.292.42h-1.61l-4.743-3.212c-1.81-1.567-3.338-2.01-5.066-3.055v-1.887l1.85-2.05s.384-.362.362-1.487c.046-1.826.04-35.003.04-35.003-.162-.883-.644-1.608-1.85-2.05l.04-1.647c4.142-1.166 16.27-5.51 19.709-7.805l.393-.512 1.248.04c2.688 3.175 6.185 3.09 9.045 5.985.846.927.644 1.93.04 2.937l-1.326 3.334-.04 32.91zm-69.48-44.915l-5.102 3.282.08 43.24a27.376 27.376 0 013.538 2.491l.401.123c1.206.12 3.338-.843 5.188-3.016l-.08-42.074zM511.192 85.2l.04 1.325c-2.415 2.451-4.102 6.47-5.952 9.081 0 0-.988-2.058-1.467-3.049-1.767-2.78-3.077-4.384-4.402-5.952l1.607-2.65V48.67l-1.046-1.485v-2.252c7.237-2.774 12.668-5.826 16.607-9.403l1.647-.12c2.412 8.799 5.228 11.934 7.118 14.465v1.528c-6.071 3.013-9.45 4.302-10.253 9.244-1.086 4.66 1.727 7.354 3.577 7.032-.482-1.608-1.337-2.32-1.405-3.737-.402-8.115 8.925-5.255 8.277-.205-1.021 5.758-5.102 7.117-5.826 6.635 0 0-2.196.415-3.635-.328-2.212-1.325-3.482-2.727-3.801-4.976-1.255-5.691 1.445-9.606 3.135-11.456-1.006-3.976-2.454-7.151-4.221-10.124-.804.362-1.166.32-1.329 1.083l.203 38.015c.724.764.923 1.647 1.126 2.614m37.61.601v1.93c-2.172 1.206-3.866 4.54-5.918 7.111l-1.728-1.846V91.95c-.402-2.208-1.89-4.019-3.62-5.022v-1.206l1.046-.923-.12-38.218-1.69-1.365 4.946-5.989.04-1.285 1.81-.764c1.086 1.93 2.411 3.538 4.028 4.783 1.647.963 4.378.601 5.584-.04 1.285-1.086 2.896-2.654 4.34-4.823h1.09l5.427 5.826v2.292c-1.65 1.887-4.059 3.817-5.265 5.627-2.055 3.132-3.153 5.025-4.264 9.2-.749 2.98.34 10.312 4.16 10.702 2.847.052 3.24-.936 3.24-.936-4.706-1.405-3.66-6.952-1.249-8.038 3.268-1.218 6.05 1.828 6.194 3.9.298 1.84-.303 3.647-1.438 4.862-1.537 1.43-2.657 3.016-7.008 2.65-2.825-.233-5.912-3.18-6.412-8.074-.754-7.192 2.194-12.741 3.719-15.193-1.445-3.052-3.458-4.5-6.354-4.258-.807.362-1.285.883-1.445 1.687l.08 37.374.807 1.083" fill-rule="evenodd"/></svg>